<?xml version="1.0" encoding="utf-8"?>
<!-- Generator: Adobe Illustrator 19.0.0, SVG Export Plug-In . SVG Version: 6.00 Build 0)  -->
<svg version="1.1" id="Layer_1" xmlns="http://www.w3.org/2000/svg" xmlns:xlink="http://www.w3.org/1999/xlink" x="0px" y="0px"
	 viewBox="0 0 497.1 180.6" style="enable-background:new 0 0 497.1 180.6;" xml:space="preserve">
<style type="text/css">
	.st0{fill:#033D78;}
	.st1{fill:#033D78;stroke:#3F4975;stroke-width:3;stroke-miterlimit:10;}
	.st2{fill:#FFE000;}
</style>
<g>
	<path class="st0" d="M0.7,141.6h5.6v-35.6H0.7v-3.5h30.2v8.9H27v-5.2H10.5v15.7h16.2v3.6H10.5v16h17.6v-5.5H32v9.2H0.7V141.6z"/>
	<path class="st0" d="M36.3,141.6h5.6v-35.6h-5.6v-3.5h18.3c2.9,0,5.2,0.2,7.6,1c4.2,1.5,6.9,5,6.9,10.7c0,6.4-3.6,11.1-9.5,12.1
		v0.1c0,0,0.8,0.5,1.5,1.8l7.1,12.1c0.7,1.2,1.5,1.4,3,1.4h1.2v3.5h-2.3c-3.7,0-4.4-0.5-5.9-3.2l-7.2-12.3c-1.2-2.1-2-2.6-4.8-2.6
		h-6.1v14.6h5.5v3.5H36.3V141.6z M56.1,123.4c5.2,0,8.6-3.5,8.6-9c0-3.9-1.7-6.4-4.7-7.5c-1.5-0.5-3.5-0.8-5.6-0.8h-8.3v17.3H56.1z"
		/>
	<path class="st0" d="M77.6,141.6h5.6v-35.6h-5.6v-3.5h15.4v3.5h-5.6v35.6h5.6v3.5H77.6V141.6z"/>
	<path class="st0" d="M98.4,141.6h5.6v-35.6h-5.6v-3.5h15.1v3.5h-5.3V121h6.3l10.4-15.1h-4.2v-3.5H134v3.5h-4.3l-11.8,16.6v0.1
		c0,0,1,0.5,2.1,2.5l8.7,14.8c0.7,1.2,1.6,1.7,3.2,1.7h2.1v3.5h-3.2c-3.6,0-4.4-0.8-5.9-3.2l-8.9-15.4c-0.7-1.3-1.6-1.9-3.4-1.9
		h-4.3v16.9h5.5v3.5H98.4V141.6z"/>
	<path class="st0" d="M154.2,141.6h5.6v-35.6h-5.6v-3.5h15.4v3.5h-5.6v16h24.7v-16h-5.6v-3.5h15.4v3.5H193v35.6h5.6v3.5h-15.4v-3.5
		h5.6v-16h-24.7v16h5.6v3.5h-15.4V141.6z"/>
	<path class="st0" d="M202.8,141.6h5.6v-35.6h-5.6v-3.5h30.2v8.9h-3.9v-5.2h-16.5v15.7h16.2v3.6h-16.2v16h17.6v-5.5h3.8v9.2h-31.3
		V141.6z"/>
	<path class="st0" d="M238.3,141.6h5.6v-35.6h-5.6v-3.5h9.7l23.9,33.7c0.6,1,1.3,2.6,1.3,2.6h0.1c0,0-0.2-1.8-0.2-3v-29.8h-5.6v-3.5
		H283v3.5h-5.6v39.2h-4.1l-23.9-33.7c-0.6-1-1.3-2.6-1.3-2.6H248c0,0,0.2,1.8,0.2,2.9v29.9h5.6v3.5h-15.5V141.6z"/>
	<path class="st0" d="M286.5,141.6h5.6v-35.6h-5.6v-3.5h18c3.6,0,6.3,0.2,9.1,1.1c8.1,2.6,13.2,10,13.2,20.3
		c0,10.5-5.2,17.7-13.7,20.3c-2.7,0.9-5.4,1-8.6,1h-18V141.6z M304.2,141.5c2.9,0,5.2-0.2,7.6-1c6.5-2.1,10.6-8,10.6-16.6
		c0-8.5-3.9-14.5-10.3-16.8c-2.5-0.9-4.9-1-7.9-1h-7.8v35.4H304.2z"/>
	<path class="st0" d="M328.4,141.6h5.6v-35.6h-5.6v-3.5h18.3c2.9,0,5.2,0.2,7.6,1c4.2,1.5,6.9,5,6.9,10.7c0,6.4-3.6,11.1-9.5,12.1
		v0.1c0,0,0.8,0.5,1.5,1.8l7.1,12.1c0.7,1.2,1.5,1.4,3,1.4h1.2v3.5h-2.3c-3.7,0-4.4-0.5-5.9-3.2l-7.2-12.3c-1.2-2.1-2-2.6-4.8-2.6
		h-6.1v14.6h5.5v3.5h-15.4V141.6z M348.2,123.4c5.2,0,8.6-3.5,8.6-9c0-3.9-1.7-6.4-4.7-7.5c-1.5-0.5-3.5-0.8-5.6-0.8h-8.3v17.3
		H348.2z"/>
	<path class="st0" d="M369.7,141.6h5.6v-35.6h-5.6v-3.5h15.4v3.5h-5.6v35.6h5.6v3.5h-15.4V141.6z"/>
	<path class="st0" d="M411.7,101.7c5.2,0,15.9,1.9,15.9,8.5v4.6h-4.1v-3.4c0-4.2-7.3-5.8-11.7-5.8c-9.9,0-17.4,7.5-17.4,17.9
		c0,10.6,7.5,18.6,17.6,18.6c3.5,0,12.1-1.3,12.1-5.8v-3.3h4.1v4.6c0,6.2-10.4,8.4-16.3,8.4c-12.8,0-21.9-10-21.9-22.3
		C390.1,111,399.5,101.7,411.7,101.7z"/>
	<path class="st0" d="M432.7,141.6h5.6v-35.6h-5.6v-3.5h15.1v3.5h-5.3V121h6.3l10.4-15.1H455v-3.5h13.2v3.5H464l-11.8,16.6v0.1
		c0,0,1,0.5,2.1,2.5l8.7,14.8c0.7,1.2,1.6,1.7,3.2,1.7h2.1v3.5h-3.2c-3.6,0-4.4-0.8-5.9-3.2l-8.9-15.4c-0.7-1.3-1.6-1.9-3.4-1.9
		h-4.3v16.9h5.5v3.5h-15.4V141.6z"/>
	<path class="st0" d="M476.5,133.2v3.1c0,3.6,4.4,5.6,9.4,5.6c5.5,0,9.5-2.7,9.5-7.7c0-5.6-5.2-7.5-10.7-9.6
		c-5.6-2.1-11.4-4.4-11.4-11.8c0-7.5,6-11.1,13-11.1c6.1,0,12.3,2.4,12.3,6.7v4.6h-4.1v-3.2c0-2.7-4.4-4.2-8.3-4.2
		c-4.9,0-8.6,2.4-8.6,6.9c0,5.2,4.6,6.8,9.8,8.8c6.2,2.3,12.3,4.7,12.3,12.5c0,7.5-6,12-13.9,12c-6.1,0-13.4-2.7-13.4-8.6v-4.1
		H476.5z"/>
</g>
<g>
	<path class="st0" d="M83.7,177.3h2l1-11.4h-2v-3.3h7l3,8.9c0.4,1.1,0.5,1.9,0.5,1.9h0.1c0,0,0.1-0.8,0.5-1.9l3-8.9h7v3.3h-2l1,11.4
		h2v3.3h-8.1v-3.3h1.8l-0.4-6.4c-0.1-0.8,0.1-2,0.1-2h-0.1c0,0-0.2,1.2-0.5,1.9l-2.4,6.5h-3.8l-2.4-6.5c-0.3-0.8-0.5-1.9-0.5-1.9
		h-0.1c0,0,0.1,1.3,0.1,2l-0.4,6.4h1.8v3.3h-8.1V177.3z"/>
	<path class="st0" d="M109.3,177.3h2v-11.4h-2v-3.3h13.8v5.3h-3.8v-1.8h-3.6v3.6h5.2v3.5h-5.2v3.8h3.9v-1.8h3.8v5.3h-14.1V177.3z"/>
	<path class="st0" d="M125.9,177.3h2l1-11.4h-2v-3.3h7l3,8.9c0.4,1.1,0.5,1.9,0.5,1.9h0.1c0,0,0.1-0.8,0.5-1.9l3-8.9h7v3.3h-2
		l1,11.4h2v3.3h-8.1v-3.3h1.8l-0.4-6.4c-0.1-0.8,0.1-2,0.1-2h-0.1c0,0-0.2,1.2-0.5,1.9l-2.4,6.5h-3.8l-2.4-6.5
		c-0.3-0.8-0.5-1.9-0.5-1.9h-0.1c0,0,0.1,1.3,0.1,2l-0.4,6.4h1.8v3.3h-8.1V177.3z"/>
	<path class="st0" d="M158.9,162.4c5.5,0,9.4,4,9.4,9.1c0,5.3-4,9.4-9.4,9.4c-5.5,0-9.4-4.1-9.4-9.4
		C149.4,166.4,153.4,162.4,158.9,162.4z M158.9,177c2.6,0,4.8-2.4,4.8-5.5c0-3-2.2-5.3-4.8-5.3c-2.6,0-4.8,2.3-4.8,5.3
		C154.1,174.6,156.2,177,158.9,177z"/>
	<path class="st0" d="M169.8,177.3h2v-11.4h-2v-3.3h8.1c1.4,0,2.6,0,3.6,0.4c2.2,0.7,3.6,2.4,3.6,5c0,2.4-1.1,4-2.9,4.9v0
		c0,0,0.7,0.3,1.1,1.1l1.4,2.7c0.2,0.4,0.6,0.6,1.2,0.6h0.6v3.3h-3c-1.5,0-2-0.4-2.5-1.3l-2.2-4.2c-0.3-0.6-0.6-0.8-1.6-0.8h-0.9v3
		h1.9v3.3h-8.4V177.3z M178.4,170.8c1.4,0,2.3-0.7,2.3-2.3c0-0.8-0.2-1.6-1-2c-0.4-0.2-1-0.3-1.7-0.3h-1.6v4.6H178.4z"/>
	<path class="st0" d="M188.4,177.3h2v-11.4h-2v-3.3h8.5v3.3h-2v11.4h2v3.3h-8.5V177.3z"/>
	<path class="st0" d="M198.3,177.3h1.5l4.9-14.6h5.1l4.9,14.6h1.5v3.3h-7.5v-3.3h1.6l-0.7-2.4h-4.6l-0.7,2.4h1.6v3.3h-7.5V177.3z
		 M208.6,171.5l-0.9-3.3c-0.3-1.1-0.4-1.9-0.4-1.9h-0.1c0,0,0,0.8-0.4,1.9l-1,3.3H208.6z"/>
	<path class="st0" d="M217.7,177.3h2v-11.1h-2v-3.5h8.5v3.5h-2v10.9h3.9v-2.6h3.8v6.1h-14.1V177.3z"/>
	<path class="st0" d="M239.8,177.3h2v-11.4h-2v-3.3h13.3v5.3h-3.8v-1.5h-3.1v3.9h5.3v3.5h-5.3v3.5h2.3v3.3h-8.7V177.3z"/>
	<path class="st0" d="M263.5,162.4c5.5,0,9.4,4,9.4,9.1c0,5.3-4,9.4-9.4,9.4s-9.4-4.1-9.4-9.4C254.1,166.4,258,162.4,263.5,162.4z
		 M263.5,177c2.6,0,4.8-2.4,4.8-5.5c0-3-2.2-5.3-4.8-5.3s-4.8,2.3-4.8,5.3C258.7,174.6,260.9,177,263.5,177z"/>
	<path class="st0" d="M275.9,165.9h-2v-3.3h8.5v3.3h-2v7.8c0,0.8,0.2,1.5,0.5,2c0.5,0.8,1.5,1.3,2.7,1.3c1.2,0,2.1-0.4,2.6-1.3
		c0.3-0.5,0.5-1.2,0.5-2v-7.8h-2v-3.3h8.5v3.3h-2v7.8c0,1.8-0.6,3.5-1.5,4.7c-1.4,1.7-3.8,2.5-6.1,2.5c-2.6,0-4.8-0.9-6.1-2.4
		c-1.1-1.2-1.5-2.9-1.5-4.7V165.9z"/>
	<path class="st0" d="M295,177.3h2v-11.4h-2v-3.3h6.5l5.6,9.5c0.4,0.7,0.8,1.8,0.8,1.8h0.1c0,0-0.2-1.2-0.2-2v-6.1h-2.1v-3.3h8.6
		v3.3h-2v14.6h-4.5l-5.6-9.4c-0.4-0.7-0.8-1.8-0.8-1.8h-0.1c0,0,0.2,1.2,0.2,2v6h2.1v3.3H295V177.3z"/>
	<path class="st0" d="M316,177.3h2v-11.4h-2v-3.3h7.9c1.4,0,2.6,0,3.7,0.4c3.6,1,6,4.1,6,8.6c0,4.1-2.1,7.2-5.4,8.4
		c-1.3,0.5-2.7,0.6-4.3,0.6H316V177.3z M323.8,177.1c1.1,0,1.9-0.1,2.7-0.5c1.5-0.8,2.4-2.6,2.4-4.9c0-2.7-1.1-4.4-2.8-5.1
		c-0.8-0.3-1.5-0.4-2.4-0.4h-1.3v10.9H323.8z"/>
	<path class="st0" d="M333.6,177.3h1.5l4.9-14.6h5.1l4.9,14.6h1.5v3.3h-7.5v-3.3h1.6l-0.7-2.4h-4.6l-0.7,2.4h1.6v3.3h-7.5V177.3z
		 M343.8,171.5l-0.9-3.3c-0.3-1.1-0.3-1.9-0.3-1.9h-0.1c0,0,0,0.8-0.4,1.9l-1,3.3H343.8z"/>
	<path class="st0" d="M353.9,177.3h2v-11.1h-2.1v2.5H350v-6h16.3v6h-3.8v-2.5h-2.1v11.1h2v3.3h-8.5V177.3z"/>
	<path class="st0" d="M368,177.3h2v-11.4h-2v-3.3h8.5v3.3h-2v11.4h2v3.3H368V177.3z"/>
	<path class="st0" d="M387,162.4c5.5,0,9.4,4,9.4,9.1c0,5.3-4,9.4-9.4,9.4s-9.4-4.1-9.4-9.4C377.6,166.4,381.5,162.4,387,162.4z
		 M387,177c2.6,0,4.8-2.4,4.8-5.5c0-3-2.2-5.3-4.8-5.3s-4.8,2.3-4.8,5.3C382.2,174.6,384.4,177,387,177z"/>
	<path class="st0" d="M397.5,177.3h2v-11.4h-2v-3.3h6.5l5.6,9.5c0.4,0.7,0.8,1.8,0.8,1.8h0.1c0,0-0.2-1.2-0.2-2v-6.1h-2.1v-3.3h8.6
		v3.3h-2v14.6h-4.5l-5.6-9.4c-0.4-0.7-0.8-1.8-0.8-1.8h-0.1c0,0,0.2,1.2,0.2,2v6h2.1v3.3h-8.6V177.3z"/>
</g>
<g>
	<line class="st1" x1="300.1" y1="80" x2="497.1" y2="80"/>
	<line class="st1" x1="0" y1="80" x2="197.6" y2="80"/>
</g>
<g>
	<path class="st2" d="M229.3,60.2c-0.2,0.1-0.4,0.1-0.7,0.2c-1.9-1.9-3.3-2.3-4.6-1.3c-1.2,0.9-1.7,3.8-0.9,5.2
		c1.6,2.9,6.3,3.5,8.8,1.2c2.8-2.6,3.7-6.5,2.3-9.8c-1.7-3.8-5.1-5.9-9.1-5.6c-6.1,0.5-9.9,5-10.2,12.1c-0.2,5,2.2,8.8,6.4,11
		c4.7,2.5,9.6,3.1,14.3-0.1c4.4-3,6.1-7.5,6.8-12.5c1.1-7.4-3.7-15.6-10.7-18.1c-9-3.2-16.6-0.7-22,6.9c-4.5,6.3-5.7,13.5-2.5,20.7
		c2.4,5.6,6.8,9.5,12.4,12.1c5.3,2.5,10.8,2.6,16.1,0.4c7.6-3.2,12.4-9.1,14.2-17.3c1-4.5,1.8-8.9,5-12.6c8-9.2,19.7-9.5,27-0.5
		c6.6,8.3,4.5,20-4.6,24.9c-6.1,3.3-14.8,0.9-17.8-4.9c-3.2-6.1-0.5-13.7,6-17.1c2.8-1.4,5.6-1.4,8.1,0.7c2.7,2.3,4.5,5.3,3.6,9
		c-0.6,2.8-4,5.2-6.9,5c-2.2-0.1-3.4-1.6-4-3.4c-0.4-1.4,0.1-2.7,1.7-3.3c0.6,2.8,1.6,4,3.4,3.7c1.6-0.2,3.3-2.3,3.2-4.1
		c-0.1-3.6-3.6-6.3-7.1-5.5c-3.7,0.8-6.2,3.3-6.7,6.9c-0.7,4.2,0.9,7.6,4.3,9.5c4.4,2.5,9.1,1.9,13.3-1.7c4-3.4,5.4-9.1,3.3-14.3
		c-2-4.9-6.7-8.9-12.1-8.9c-11.6,0-20.6,13.6-15.9,24.3c5,11.3,16.6,15,27.5,8.3c14.3-8.8,12.1-25.3,3.5-34.7
		c-8.1-8.9-21.7-7.9-30.2-0.7c-1.6,1.4-3.1,3-4.7,4.6c-0.2-0.3-0.5-0.5-0.6-0.7c-3.4-4.9-6.7-9.7-10.1-14.6c-1-1.4-1.9-2.9-2.6-4.4
		c-5.2-11.1,0.6-22.4,12.4-24.6c11.7-2.2,21.8,8.5,18.3,19.5c-1.7,5.4-7,9.6-11.8,9.4c-5.8-0.3-10.7-4.3-11.9-10.1
		c-1.3-6,1.8-10.2,7.9-10.7c2.6-0.2,5.1,0.5,6.5,2.9c1.4,2.2,1.8,4.6,0.5,7.1c-1,1.8-2.7,2.5-4.5,2.1c-1-0.2-1.9-1.3-2.8-2.1
		c0.1-0.2,0.3-0.4,0.4-0.7c0.4,0,0.7,0.2,1.1,0.1c1.1-0.3,2.6-0.3,3-1c0.5-0.9,0.5-2.4,0.1-3.4c-1-2.3-3.9-2.9-6.4-1.8
		c-5,2.2-4.3,10.1-0.4,12.8c2.9,2.1,7.3,2.5,10.1,0.8c3.6-2.2,6.2-7.4,5.3-11.2c-1.3-5.7-4.7-10.4-11.6-11c-5.3-0.5-12.8,3.3-14.3,9
		c-1.2,4.7-0.6,8.9,1.4,13.1c3.2,6.4,8.5,9.7,15.5,9.7c6.8,0,12.2-3.1,15.4-8.9c6-11,1.3-25.8-10.6-29.9c-10.7-3.8-21.5-1-27.2,8.1
		c-5.4,8.7-4.8,19.6,1.3,27.9c2.6,3.5,5.1,7.1,7.6,10.6c0.9,1.3,2,2.7,2.5,4.2c1.7,5.6,1.3,11.1-1.2,16.4
		c-4.1,8.5-13.8,11.8-22.3,7.6c-8.8-4.4-12-13.9-7.6-22.2c3-5.6,10.6-8.8,16.2-6.7c5.3,2,8.5,8.3,7.2,14.4c-0.7,3.4-2.2,6.5-5.9,7.5
		c-3.6,1-6.6-0.3-9.1-2.8c-3.1-3.1-2-9.1,2.1-10.6c1.3-0.5,3.3,0.2,4.6,1C229,57.4,229,59.1,229.3,60.2z"/>
	<path class="st2" d="M229.3,60.2c-0.3-1.1-0.3-2.8-1-3.2c-1.3-0.8-3.4-1.4-4.6-1c-4,1.5-5.1,7.5-2.1,10.6c2.5,2.5,5.6,3.8,9.1,2.8
		c3.7-1,5.1-4.1,5.9-7.5c1.3-6.1-1.9-12.4-7.2-14.4c-5.6-2.1-13.2,1-16.2,6.7c-4.4,8.3-1.1,17.8,7.6,22.2c8.5,4.3,18.3,1,22.3-7.6
		c2.5-5.3,2.9-10.8,1.2-16.4c-0.5-1.5-1.6-2.9-2.5-4.2c-2.5-3.6-5-7.1-7.6-10.6c-6.1-8.3-6.7-19.2-1.3-27.9
		c5.7-9.1,16.5-11.8,27.2-8.1c11.9,4.2,16.6,18.9,10.6,29.9c-3.2,5.8-8.7,8.9-15.4,8.9c-7,0-12.4-3.3-15.5-9.7
		c-2-4.2-2.7-8.4-1.4-13.1c1.5-5.8,9-9.5,14.3-9c6.9,0.6,10.3,5.4,11.6,11c0.9,3.7-1.7,9-5.3,11.2c-2.8,1.7-7.2,1.3-10.1-0.8
		c-3.8-2.7-4.6-10.6,0.4-12.8c2.5-1.1,5.4-0.5,6.4,1.8c0.4,1,0.4,2.6-0.1,3.4c-0.4,0.7-1.9,0.8-3,1c-0.3,0.1-0.7-0.1-1.1-0.1
		c-0.1,0.2-0.3,0.4-0.4,0.7c0.9,0.7,1.8,1.8,2.8,2.1c1.9,0.4,3.5-0.3,4.5-2.1c1.3-2.5,0.8-4.9-0.5-7.1c-1.5-2.4-3.9-3-6.5-2.9
		c-6.1,0.4-9.2,4.7-7.9,10.7c1.2,5.7,6.1,9.8,11.9,10.1c4.8,0.2,10.1-4,11.8-9.4c3.5-11-6.5-21.7-18.3-19.5
		c-11.8,2.2-17.6,13.6-12.4,24.6c0.7,1.5,1.6,3,2.6,4.4c3.3,4.9,6.7,9.7,10.1,14.6c0.2,0.2,0.4,0.5,0.6,0.7c1.6-1.6,3.1-3.2,4.7-4.6
		c8.6-7.2,22.1-8.2,30.2,0.7c8.7,9.4,10.8,25.9-3.5,34.7c-10.8,6.7-22.5,3-27.5-8.3c-4.7-10.7,4.2-24.2,15.9-24.3
		c5.4,0,10,4,12.1,8.9c2.2,5.2,0.7,10.8-3.3,14.3c-4.2,3.6-8.9,4.2-13.3,1.7c-3.4-1.9-4.9-5.3-4.3-9.5c0.5-3.5,3-6,6.7-6.9
		c3.5-0.8,7,2,7.1,5.5c0,1.8-1.6,3.9-3.2,4.1c-1.8,0.2-2.9-0.9-3.4-3.7c-1.6,0.7-2.1,1.9-1.7,3.3c0.6,1.9,1.8,3.3,4,3.4
		c2.8,0.2,6.2-2.2,6.9-5c0.9-3.8-0.9-6.7-3.6-9c-2.4-2.1-5.3-2.1-8.1-0.7c-6.5,3.3-9.1,10.9-6,17.1c3,5.8,11.7,8.2,17.8,4.9
		c9.1-4.9,11.3-16.6,4.6-24.9c-7.3-9-19-8.8-27,0.5c-3.2,3.7-4,8.2-5,12.6c-1.8,8.2-6.6,14.1-14.2,17.3c-5.2,2.2-10.7,2.1-16.1-0.4
		c-5.6-2.6-10-6.5-12.4-12.1c-3.2-7.3-2-14.4,2.5-20.7c5.4-7.6,13-10.1,22-6.9c7,2.5,11.8,10.8,10.7,18.1c-0.7,5-2.4,9.5-6.8,12.5
		c-4.7,3.3-9.6,2.6-14.3,0.1c-4.3-2.3-6.7-6-6.4-11c0.3-7.1,4.2-11.6,10.2-12.1c4-0.3,7.4,1.8,9.1,5.6c1.5,3.3,0.5,7.2-2.3,9.8
		c-2.5,2.3-7.1,1.6-8.8-1.2c-0.8-1.4-0.3-4.3,0.9-5.2c1.3-1,2.6-0.6,4.6,1.3C228.9,60.3,229.1,60.3,229.3,60.2z"/>
</g>
</svg>
