<?xml version="1.0" encoding="utf-8"?>
<!-- Generator: Adobe Illustrator 19.0.0, SVG Export Plug-In . SVG Version: 6.00 Build 0)  -->
<svg version="1.1" id="Layer_1" xmlns="http://www.w3.org/2000/svg" xmlns:xlink="http://www.w3.org/1999/xlink" x="0px" y="0px"
	 viewBox="0 0 420.2 136.1" style="enable-background:new 0 0 420.2 136.1;" xml:space="preserve">
<style type="text/css">
	.st0{fill:#033D78;}
	.st1{fill:#FFE000;}
</style>
<g>
	<path class="st0" d="M162.2,30.4c12.4,0,19.2,9,19.2,20.4c0,1.3-0.3,3.6-0.3,3.6h-29.8c0.7,7.9,6.4,12,12.9,12
		c7,0,12.5-4.6,12.5-4.6l4.1,7.6c0,0-6.6,6-17.4,6c-14.3,0-23.1-10.3-23.1-22.5C140.4,39.7,149.3,30.4,162.2,30.4z M170.3,48.1
		c-0.2-5.9-3.8-9.5-8.4-9.5c-5.5,0-9.4,3.8-10.4,9.5H170.3z"/>
	<path class="st0" d="M185.3,66.4h6.2V22.6h-6.7v-8h17.4v20.9c0,2.1-0.3,3.6-0.3,3.6h0.2c2.1-4.1,7.4-8.7,14.9-8.7
		c9.5,0,15,5,15,16.4v19.7h6.2v8h-17V49c0-5.2-1.3-8.8-6.8-8.8c-7.6,0-12.3,6.6-12.3,14.5v11.7h6.2v8h-23.1V66.4z"/>
	<path class="st0" d="M244,69.7h7.2V38.6c0-1.3-0.7-1.9-1.9-1.9h-5.7V32h8.1c3.5,0,5.1,1.5,5.1,4.7v2.4c0,1.7-0.3,3-0.3,3h0.2
		c2.2-5.7,9-11.2,15.8-11.2c7.7,0,11.7,3.6,12.9,10.8h0.2c2.4-5.7,8.5-10.8,15.7-10.8c10.2,0,14,6,14,16.5v22.3h7.2v4.7h-12.9V48.9
		c0-6.9-1.4-12.7-9.1-12.7c-8.6,0-14.3,9.1-14.3,17.9v15.6h7.2v4.7h-12.9V48.9c0-6.4-0.8-12.7-8.9-12.7c-8.7,0-14.5,9.2-14.5,18.1
		v15.4h7.2v4.7H244V69.7z"/>
	<path class="st0" d="M328,69.7h7.2v-33h-7.6V32h7.6v-2.2c0-13.4,9.5-15.1,13.8-15.1c2.1,0,3.5,0.3,3.5,0.3v5c0,0-1.1-0.3-2.9-0.3
		c-2.9,0-8.7,1-8.7,10V32h10.8v4.7h-10.8v33h8.4v4.7H328V69.7z"/>
</g>
<g>
	<path class="st0" d="M144.1,97.6h1.2v-6.8h-1.2v-2h8.3v3.2h-2.3v-1.1H148v2.2h3.1v2.1H148v2.3h2.3v-1.1h2.3v3.2h-8.5V97.6z"/>
	<path class="st0" d="M153.9,97.6h1.1V94c0-0.2-0.1-0.3-0.3-0.3h-0.7v-1.9h2.4c0.7,0,1.1,0.3,1.1,1v0.4c0,0.2,0,0.4,0,0.4h0
		c0.3-1.1,1.3-1.9,2.5-1.9c0.2,0,0.3,0,0.3,0v2.6c0,0-0.2,0-0.5,0c-1.4,0-2.1,0.9-2.1,2.3v1.1h1.1v1.9h-4.7V97.6z"/>
	<path class="st0" d="M161.1,97.6h1v-4H161v-1.9h3.6v5.9h1v1.9h-4.5V97.6z M162.1,88.8h2.5v2h-2.5V88.8z"/>
	<path class="st0" d="M166.5,97.6h1v-7h-1.1v-1.9h3.6v5.9h0.9l0.8-1H171v-1.9h4v1.9h-0.9l-1.3,1.6v0c0,0,0.3,0.2,0.6,0.7l0.8,1.4
		c0.1,0.2,0.3,0.3,0.6,0.3h0.4v1.9h-1.9c-0.6,0-0.8-0.1-1.1-0.6l-1.2-2.2c-0.1-0.3-0.4-0.3-0.6-0.3H170v1.2h0.6v1.9h-4.1V97.6z"/>
	<path class="st0" d="M180.1,97.6h1.2v-6.8h-1.2v-2h5.1v2h-1.2v2.4h3.8v-2.4h-1.2v-2h5.1v2h-1.2v6.8h1.2v2h-5.1v-2h1.2v-2.3h-3.8
		v2.3h1.2v2h-5.1V97.6z"/>
	<path class="st0" d="M196.7,91.6c2.3,0,3.6,1.6,3.6,3.7c0,0.3-0.1,0.8-0.1,0.8h-4.9c0.2,1,1,1.4,1.8,1.4c1.1,0,2.2-0.7,2.2-0.7
		l0.9,1.8c0,0-1.2,1.1-3.3,1.1c-2.8,0-4.2-2-4.2-4.1C192.6,93.4,194.2,91.6,196.7,91.6z M197.6,94.7c0-0.6-0.4-1.1-1-1.1
		c-0.8,0-1.1,0.5-1.2,1.1H197.6z"/>
	<path class="st0" d="M201.3,97.6h1V94c0-0.2-0.1-0.3-0.3-0.3h-0.7v-1.9h2.5c0.7,0,1.1,0.3,1.1,0.9v0.3c0,0.1,0,0.2,0,0.2h0
		c0,0,0.7-1.5,2.6-1.5c1.5,0,2.6,0.7,2.6,2.9v3.1h1v1.9h-3.6V95c0-0.7-0.3-1-0.9-1c-1.2,0-1.7,1.2-1.7,2.3v1.4h1v1.9h-4.5V97.6z"/>
	<path class="st0" d="M215.3,91.6c1.5,0,2,0.8,2,0.8h0c0,0,0-0.2,0-0.5v-1.2h-1.1v-1.9h3.6v8.5c0,0.2,0.1,0.3,0.3,0.3h0.6v1.9h-2.2
		c-0.8,0-1-0.4-1-0.8v0c0-0.1,0-0.2,0-0.2h0c0,0-0.6,1.3-2.4,1.3c-2.1,0-3.4-1.7-3.4-4C211.7,93.2,213.2,91.6,215.3,91.6z
		 M215.8,97.5c0.8,0,1.5-0.6,1.5-1.8c0-1-0.5-1.9-1.5-1.9c-0.9,0-1.5,0.7-1.5,1.9C214.3,96.8,215,97.5,215.8,97.5z"/>
	<path class="st0" d="M221.9,97.6h1.1V94c0-0.2-0.1-0.3-0.3-0.3h-0.7v-1.9h2.4c0.7,0,1.1,0.3,1.1,1v0.4c0,0.2,0,0.4,0,0.4h0
		c0.3-1.1,1.3-1.9,2.5-1.9c0.1,0,0.3,0,0.3,0v2.6c0,0-0.2,0-0.5,0c-1.4,0-2.1,0.9-2.1,2.3v1.1h1.1v1.9h-4.7V97.6z"/>
	<path class="st0" d="M229.1,97.6h1v-4H229v-1.9h3.6v5.9h1v1.9h-4.5V97.6z M230.1,88.8h2.5v2h-2.5V88.8z"/>
	<path class="st0" d="M238.6,91.6c1.5,0,3.4,0.5,3.4,2v1.2h-2.2v-0.5c0-0.4-0.5-0.6-1.1-0.6c-1.2,0-1.7,0.8-1.7,1.8c0,1.4,0.9,2,2,2
		c0.8,0,1.7-0.3,2.3-0.9l0.9,1.8c-0.8,0.8-2.1,1.2-3.4,1.2c-2.3,0-4.4-1.5-4.4-4C234.4,93.4,236.1,91.6,238.6,91.6z"/>
	<path class="st0" d="M243,97.6h1v-7h-1.1v-1.9h3.6v5.9h0.9l0.8-1h-0.7v-1.9h4v1.9h-0.9l-1.3,1.6v0c0,0,0.3,0.2,0.6,0.7l0.8,1.4
		c0.1,0.2,0.3,0.3,0.6,0.3h0.4v1.9h-1.9c-0.6,0-0.8-0.1-1.1-0.6l-1.2-2.2c-0.1-0.3-0.4-0.3-0.6-0.3h-0.2v1.2h0.6v1.9H243V97.6z"/>
	<path class="st0" d="M252.5,96.8h2.2v0.4c0,0.3,0.4,0.6,1.1,0.6c0.6,0,0.9-0.1,0.9-0.5c0-0.5-0.5-0.5-1.5-0.9
		c-1.1-0.4-2.5-0.9-2.5-2.5c0-1.8,1.8-2.3,3.3-2.3c1.2,0,3,0.4,3,1.7v1.1h-2.2V94c0-0.2-0.2-0.4-0.8-0.4c-0.4,0-0.7,0.1-0.7,0.4
		c0,0.5,0.6,0.6,1.4,0.8c1.2,0.3,2.6,0.8,2.6,2.4c0,1.7-1.7,2.5-3.5,2.5c-1.4,0-3.3-0.6-3.3-1.9V96.8z"/>
	<path class="st0" d="M264,98.6h1.4l0.7-8.8h-1.4V89h2.5l3.1,6.9c0.1,0.3,0.2,0.6,0.2,0.6h0c0,0,0.1-0.3,0.2-0.6l3.1-6.9h2.5v0.9
		H275l0.7,8.8h1.4v0.9h-3.8v-0.9h1.4l-0.6-7.3c0-0.3,0-0.8,0-0.8h0c0,0-0.1,0.5-0.2,0.7l-2.8,6.2h-1l-2.8-6.2
		c-0.1-0.3-0.2-0.7-0.2-0.7h0c0,0,0,0.5,0,0.8l-0.6,7.3h1.4v0.9H264V98.6z"/>
	<path class="st0" d="M281.8,91.8c2.1,0,3.2,1.6,3.2,3.5c0,0.2,0,0.5,0,0.5h-5.8c0,1.9,1.4,3,2.9,3c1.4,0,2.3-0.9,2.3-0.9l0.5,0.8
		c0,0-1.1,1.1-2.8,1.1c-2.3,0-3.9-1.6-3.9-3.9C278.1,93.3,279.8,91.8,281.8,91.8z M283.9,95c-0.1-1.6-1-2.4-2.1-2.4
		c-1.3,0-2.4,0.8-2.6,2.4H283.9z"/>
	<path class="st0" d="M286.4,98.7h1.3v-5.5c0-0.2-0.1-0.3-0.3-0.3h-1V92h1.4c0.6,0,0.9,0.3,0.9,0.8v0.4c0,0.3-0.1,0.5-0.1,0.5h0
		c0.4-1,1.6-2,2.8-2c1.4,0,2.1,0.6,2.3,1.9h0c0.4-1,1.5-1.9,2.8-1.9c1.8,0,2.5,1.1,2.5,2.9v4h1.3v0.8H298V95c0-1.2-0.3-2.3-1.6-2.3
		c-1.5,0-2.5,1.6-2.5,3.2v2.8h1.3v0.8h-2.3V95c0-1.1-0.2-2.3-1.6-2.3c-1.5,0-2.6,1.6-2.6,3.2v2.7h1.3v0.8h-3.6V98.7z"/>
	<path class="st0" d="M305.3,91.8c2.2,0,4,1.7,4,3.9c0,2.3-1.8,4-4,4c-2.2,0-4-1.7-4-4C301.3,93.5,303.1,91.8,305.3,91.8z
		 M305.3,98.8c1.6,0,2.9-1.3,2.9-3.1c0-1.7-1.3-3-2.9-3c-1.6,0-2.9,1.3-2.9,3C302.4,97.5,303.7,98.8,305.3,98.8z"/>
	<path class="st0" d="M310.7,98.7h1.2v-5.5c0-0.2-0.1-0.3-0.3-0.3h-1V92h1.4c0.6,0,0.9,0.3,0.9,0.9v0.5c0,0.3,0,0.6,0,0.6h0
		c0.4-1.1,1.2-2,2.4-2c0.2,0,0.4,0,0.4,0v1c0,0-0.2,0-0.4,0c-1.7,0-2.4,1.9-2.4,3.4v2.4h1.2v0.8h-3.4V98.7z"/>
	<path class="st0" d="M316.6,98.7h1.3v-5.9h-1.4V92h2.4v6.7h1.3v0.8h-3.6V98.7z M317.8,89h1.2v1.3h-1.2V89z"/>
	<path class="st0" d="M325.7,94.9h0.5v-0.3c0-1.4-0.8-1.9-1.8-1.9c-1.3,0-2.2,0.7-2.2,0.7l-0.5-0.8c0,0,1-0.9,2.7-0.9
		c1.8,0,2.8,1,2.8,2.8v3.7c0,0.2,0.1,0.3,0.3,0.3h0.8v0.8h-1.2c-0.6,0-0.9-0.3-0.9-0.8v-0.1c0-0.4,0-0.6,0-0.6h0
		c0,0-0.6,1.7-2.6,1.7c-1.2,0-2.5-0.7-2.5-2.3C321.2,95,324.4,94.9,325.7,94.9z M323.8,98.9c1.5,0,2.4-1.5,2.4-2.8v-0.4h-0.4
		c-0.6,0-3.6-0.1-3.6,1.7C322.2,98.1,322.8,98.9,323.8,98.9z"/>
	<path class="st0" d="M330.1,89.8h-1.3V89h2.4v8.6c0,0.6,0.2,1.1,0.9,1.1c0.3,0,0.4,0,0.4,0v0.9c0,0-0.3,0-0.6,0
		c-1,0-1.7-0.5-1.7-1.9V89.8z"/>
	<path class="st0" d="M337.4,98.6h1.4v-8.8h-1.4V89h7.1v2.3h-0.9v-1.3h-3.7v4h3.9v0.9h-3.9v3.9h1.5v0.9h-3.9V98.6z"/>
	<path class="st0" d="M349.4,91.8c2.2,0,4,1.7,4,3.9c0,2.3-1.8,4-4,4c-2.2,0-4-1.7-4-4C345.5,93.5,347.3,91.8,349.4,91.8z
		 M349.4,98.8c1.6,0,2.9-1.3,2.9-3.1c0-1.7-1.3-3-2.9-3c-1.6,0-2.9,1.3-2.9,3C346.5,97.5,347.8,98.8,349.4,98.8z"/>
	<path class="st0" d="M355.7,92.8h-1.4V92h2.4v4.5c0,1.2,0.2,2.2,1.7,2.2c1.7,0,2.8-1.6,2.8-3.2v-2.7h-1.4V92h2.4v6.4
		c0,0.2,0.1,0.3,0.3,0.3h0.9v0.8h-1.3c-0.6,0-0.9-0.3-0.9-0.8v-0.4c0-0.3,0-0.5,0-0.5h0c-0.2,0.6-1.1,1.9-3,1.9
		c-1.7,0-2.5-1-2.5-2.9V92.8z"/>
	<path class="st0" d="M364.6,98.7h1.3v-5.5c0-0.2-0.1-0.3-0.3-0.3h-1V92h1.4c0.6,0,0.9,0.3,0.9,0.8v0.4c0,0.3-0.1,0.5-0.1,0.5h0
		c0.2-0.6,1.2-2,3.1-2c1.9,0,2.5,1.1,2.5,2.9v4h1.3v0.8h-2.3V95c0-1.2-0.2-2.2-1.7-2.2c-1.7,0-2.9,1.5-2.9,3.1v2.8h1.3v0.8h-3.6
		V98.7z"/>
	<path class="st0" d="M378.1,91.8c1.8,0,2.5,1.5,2.5,1.5h0c0,0,0-0.3,0-0.6v-2.9h-1.4V89h2.4v9.4c0,0.2,0.1,0.3,0.3,0.3h0.8v0.8
		h-1.2c-0.6,0-0.9-0.3-0.9-0.8v-0.1c0-0.3,0.1-0.5,0.1-0.5h0c0,0-0.6,1.6-2.7,1.6c-2,0-3.3-1.6-3.3-3.9
		C374.7,93.3,376.1,91.8,378.1,91.8z M378.2,98.8c1.3,0,2.4-0.9,2.4-3c0-1.5-0.8-3-2.4-3c-1.4,0-2.4,1.1-2.4,3
		C375.8,97.6,376.8,98.8,378.2,98.8z"/>
	<path class="st0" d="M388.4,94.9h0.5v-0.3c0-1.4-0.8-1.9-1.8-1.9c-1.3,0-2.2,0.7-2.2,0.7l-0.5-0.8c0,0,1-0.9,2.7-0.9
		c1.8,0,2.8,1,2.8,2.8v3.7c0,0.2,0.1,0.3,0.3,0.3h0.8v0.8h-1.2c-0.6,0-0.9-0.3-0.9-0.8v-0.1c0-0.4,0-0.6,0-0.6h0
		c0,0-0.6,1.7-2.6,1.7c-1.2,0-2.5-0.7-2.5-2.3C383.9,95,387.1,94.9,388.4,94.9z M386.5,98.9c1.5,0,2.4-1.5,2.4-2.8v-0.4h-0.4
		c-0.6,0-3.6-0.1-3.6,1.7C384.9,98.1,385.5,98.9,386.5,98.9z"/>
	<path class="st0" d="M393,92.8h-1.4V92h1.4v-2.1h1V92h1.9v0.8H394v3.9c0,1.8,1.1,2,1.7,2c0.2,0,0.3,0,0.3,0v0.9c0,0-0.2,0-0.4,0
		c-0.9,0-2.6-0.3-2.6-2.8V92.8z"/>
	<path class="st0" d="M397.2,98.7h1.3v-5.9h-1.4V92h2.4v6.7h1.3v0.8h-3.6V98.7z M398.4,89h1.2v1.3h-1.2V89z"/>
	<path class="st0" d="M405.8,91.8c2.2,0,4,1.7,4,3.9c0,2.3-1.8,4-4,4c-2.2,0-4-1.7-4-4C401.8,93.5,403.6,91.8,405.8,91.8z
		 M405.8,98.8c1.6,0,2.9-1.3,2.9-3.1c0-1.7-1.3-3-2.9-3c-1.6,0-2.9,1.3-2.9,3C402.9,97.5,404.2,98.8,405.8,98.8z"/>
	<path class="st0" d="M411.1,98.7h1.3v-5.5c0-0.2-0.1-0.3-0.3-0.3h-1V92h1.4c0.6,0,0.9,0.3,0.9,0.8v0.4c0,0.3-0.1,0.5-0.1,0.5h0
		c0.2-0.6,1.2-2,3.1-2c1.9,0,2.5,1.1,2.5,2.9v4h1.3v0.8h-2.3V95c0-1.2-0.2-2.2-1.7-2.2c-1.7,0-2.9,1.5-2.9,3.1v2.8h1.3v0.8h-3.6
		V98.7z"/>
</g>
<g>
	<path class="st1" d="M96.2,98.5c0.1,0.4,0.2,0.7,0.3,1.1c-2.9,3.2-3.4,5.3-1.8,7.3c1.4,1.9,6,2.5,8.2,1.2
		c4.4-2.7,5.3-10.2,1.5-13.9c-4.3-4.3-10.5-5.6-15.6-3.1c-6,2.9-9.1,8.4-8.4,14.6c1.1,9.6,8.4,15.4,19.6,15.6
		c8,0.1,13.7-3.8,17.1-10.7c3.7-7.5,4.5-15.3-0.9-22.6c-5-6.8-12.2-9.2-20.1-10.1c-11.7-1.4-24.5,6.6-28.1,17.8
		c-4.7,14.4-0.3,26.2,11.9,34.4c10.3,6.8,21.5,8.3,32.9,2.9c8.8-4.1,14.6-11.3,18.5-20.2c3.7-8.6,3.6-17.3-0.2-25.4
		c-5.5-11.8-14.9-19.1-28-21.5C96.1,64.4,89,63.3,83,58.4c-15-12.2-16-30.7-2.1-42.6c12.7-10.9,31.3-8,39.5,6.1
		c5.5,9.4,2.1,23.3-6.9,28.3c-9.5,5.3-21.7,1.5-27.3-8.6c-2.4-4.4-2.5-8.8,0.7-12.8c3.6-4.4,8.1-7.4,14.1-6.2
		c4.4,0.9,8.4,6.1,8.3,10.6c-0.1,3.4-2.3,5.4-5.2,6.4c-2.2,0.8-4.2,0-5.4-2.5c4.5-1,6.2-2.8,5.7-5.6c-0.4-2.5-3.8-5-6.6-4.9
		c-5.6,0.3-9.8,6-8.4,11.5c1.5,5.8,5.6,9.6,11.2,10.3c6.7,0.8,12-1.8,14.9-7.2c3.7-7.1,2.5-14.5-3.4-20.9
		c-5.6-6.1-14.7-8.1-22.7-4.5c-7.6,3.5-13.8,11-13.5,19.5c0.7,18.4,22.5,31.8,39.2,23.9c17.6-8.4,22.9-27,11.8-43.8
		C112.2-6.6,86.3-2.4,71.8,11.7C58.2,25,60.4,46.4,72.2,59.5c2.3,2.5,4.9,4.8,7.5,7.2c-0.4,0.4-0.8,0.7-1.1,1
		C71,73.4,63.5,78.9,56,84.4c-2.2,1.6-4.5,3.1-6.9,4.3c-17.2,8.7-35.5,0.2-39.6-18.4c-4.1-18.4,12.4-34.8,30-29.8
		C48.1,42.9,55,51,55,58.6c-0.1,9.2-6.3,17.1-15.4,19.3c-9.4,2.3-16.3-2.3-17.3-11.9c-0.4-4.1,0.5-8,4.2-10.4
		c3.4-2.3,7.2-3.1,11.2-1.2c2.9,1.4,4.1,4.1,3.6,7c-0.3,1.6-2,3-3.1,4.5c-0.3-0.2-0.7-0.4-1-0.7c0.1-0.6,0.3-1.2,0.1-1.7
		c-0.5-1.6-0.7-4-1.8-4.7c-1.4-0.8-3.9-0.7-5.4,0c-3.6,1.7-4.4,6.3-2.6,10.2c3.7,7.8,16.1,6.2,20.3,0.1c3.2-4.7,3.6-11.6,0.7-16
		c-3.6-5.6-12.1-9.4-17.9-7.8c-8.9,2.3-16.2,8-16.9,18.8c-0.5,8.3,5.8,20.1,15,22.1c7.5,1.7,14.1,0.5,20.6-2.9
		c10-5.3,14.8-13.9,14.6-25c-0.3-10.7-5.5-19.2-14.8-24c-17.7-9-40.8-0.8-46.8,18.2c-5.4,17.1-0.5,34.1,14.1,42.6
		c14,8.2,31.2,6.5,44-3.4c5.4-4.2,10.9-8.4,16.4-12.5c2.1-1.5,4.1-3.3,6.5-4.1c8.7-2.9,17.4-2.6,25.9,1.1
		c13.7,6,19.4,21.3,13.1,34.9c-6.5,14.1-21.4,19.7-34.7,13.2c-9-4.5-14.4-16.3-11.4-25.2c2.9-8.5,12.8-13.9,22.4-12.1
		c5.4,1,10.3,3.2,12.1,8.9c1.8,5.6-0.1,10.5-4,14.6c-4.7,5-14.2,3.6-16.8-2.8c-0.8-2,0.2-5.2,1.3-7.4C91.8,99.1,94.5,99.1,96.2,98.5
		z"/>
	<path class="st1" d="M96.2,98.5c-1.7,0.6-4.4,0.6-5,1.8c-1.1,2.2-2.1,5.4-1.3,7.4c2.5,6.3,12.1,7.7,16.8,2.8c3.9-4.1,5.7-9,4-14.6
		c-1.8-5.8-6.8-7.9-12.1-8.9C88.9,85.1,79,90.6,76.1,99c-3,8.9,2.3,20.8,11.4,25.2c13.3,6.6,28.2,0.9,34.7-13.2
		c6.3-13.7,0.6-28.9-13.1-34.9c-8.5-3.7-17.2-4-25.9-1.1c-2.4,0.8-4.4,2.6-6.5,4.1c-5.5,4.1-11,8.3-16.4,12.5
		c-12.8,10-29.9,11.6-44,3.4C1.6,86.7-3.3,69.7,2.1,52.6c6-18.9,29.1-27.1,46.8-18.2c9.4,4.8,14.6,13.3,14.8,24
		c0.3,11.1-4.5,19.7-14.6,25c-6.5,3.4-13.1,4.6-20.6,2.9c-9.2-2.1-15.5-13.8-15-22.1c0.6-10.9,8-16.5,16.9-18.8
		c5.9-1.5,14.3,2.3,17.9,7.8c2.9,4.4,2.4,11.3-0.7,16c-4.1,6.2-16.6,7.8-20.3-0.1c-1.8-3.9-1-8.6,2.6-10.2c1.5-0.7,4-0.8,5.4,0
		c1.1,0.7,1.3,3,1.8,4.7c0.1,0.5-0.1,1.1-0.1,1.7c0.3,0.2,0.7,0.4,1,0.7c1.1-1.5,2.8-2.9,3.1-4.5c0.6-2.9-0.7-5.6-3.6-7
		c-4-1.9-7.8-1.1-11.2,1.2c-3.7,2.4-4.6,6.3-4.2,10.4c1,9.6,7.9,14.2,17.3,11.9c9-2.2,15.3-10.1,15.4-19.3
		C55,51,48.1,42.9,39.5,40.5c-17.6-5-34,11.4-30,29.8c4.1,18.6,22.3,27.1,39.6,18.4c2.4-1.2,4.7-2.7,6.9-4.3
		c7.6-5.5,15-11.1,22.5-16.6c0.4-0.3,0.7-0.6,1.1-1c-2.6-2.5-5.2-4.7-7.5-7.2c-11.8-13.2-14-34.5-0.4-47.8
		c14.5-14.2,40.4-18.4,55.1,3.8c11.1,16.8,5.8,35.4-11.8,43.8c-16.7,7.9-38.5-5.5-39.2-23.9c-0.3-8.5,5.9-16.1,13.5-19.5
		c8.1-3.7,17.1-1.7,22.7,4.5c5.9,6.4,7.1,13.9,3.4,20.9c-2.9,5.5-8.2,8.1-14.9,7.2c-5.6-0.7-9.7-4.5-11.2-10.3
		c-1.4-5.5,2.8-11.2,8.4-11.5c2.8-0.1,6.2,2.4,6.6,4.9c0.5,2.8-1.2,4.6-5.7,5.6c1.1,2.5,3.1,3.2,5.4,2.5c2.9-1,5.1-3,5.2-6.4
		c0.1-4.5-3.9-9.7-8.3-10.6c-6-1.2-10.5,1.8-14.1,6.2c-3.2,4-3.1,8.4-0.7,12.8c5.6,10.1,17.8,13.9,27.3,8.6c9-5,12.4-18.9,6.9-28.3
		c-8.2-14.1-26.8-17-39.5-6.1C67,27.7,68,46.3,83,58.4c6,4.9,13.1,5.9,20.2,7.3c13.1,2.4,22.6,9.7,28,21.5
		c3.7,8.1,3.9,16.8,0.2,25.4c-3.9,8.9-9.7,16.1-18.5,20.2c-11.4,5.4-22.7,3.9-32.9-2.9c-12.2-8.1-16.6-20-11.9-34.4
		c3.6-11.2,16.4-19.2,28.1-17.8c7.9,0.9,15.1,3.3,20.1,10.1c5.4,7.3,4.7,15.1,0.9,22.6c-3.4,6.9-9.2,10.8-17.1,10.7
		c-11.2-0.2-18.5-6-19.6-15.6c-0.7-6.3,2.4-11.7,8.4-14.6c5.1-2.5,11.3-1.2,15.6,3.1c3.7,3.8,2.9,11.2-1.5,13.9
		c-2.2,1.3-6.8,0.7-8.2-1.2c-1.6-2-1-4.2,1.8-7.3C96.5,99.2,96.3,98.9,96.2,98.5z"/>
</g>
</svg>
